PathFileType	4	(X/Y/Z)	./resultDataOpenSim/trcMotMarkerGrf/sub10/qtm-05-06.trc
DataRate	CameraRate	NumFrames	NumMarkers	Units	OrigDataRate	OrigDataStartFrame	OrigNumFrames
250.000000	250.000000	6	24	m	250.000000	377	502
Frame#	Time	L.Toe.Tip			R.Toe.Tip			L.Ankle.Lat			R.Ankle.Lat			L.Ankle.Med			R.Ankle.Med			L.Heel			R.Heel			L.Knee.Lat			R.Knee.Lat			L.Knee.Med			R.Knee.Med			L.Thigh.Upper			R.Thigh.Upper			L.ASIS			R.ASIS			V.Sacral			L.Acromium			R.Acromium			C7			L.Elbow			R.Elbow			L.Wrist.Lat			R.Wrist.Lat
		X1	Y1	Z1	X2	Y2	Z2	X3	Y3	Z3	X4	Y4	Z4	X5	Y5	Z5	X6	Y6	Z6	X7	Y7	Z7	X8	Y8	Z8	X9	Y9	Z9	X10	Y10	Z10	X11	Y11	Z11	X12	Y12	Z12	X13	Y13	Z13	X14	Y14	Z14	X15	Y15	Z15	X16	Y16	Z16	X17	Y17	Z17	X18	Y18	Z18	X19	Y19	Z19	X20	Y20	Z20	X21	Y21	Z21	X22	Y22	Z22	X23	Y23	Z23	X24	Y24	Z24

377	1.504	0.52886711	0.094040693	-0.097844793	0.8937443	0.039184873	0.047600722	0.50951589	0.23059879	-0.12325858	0.75173933	0.051485198	0.090713591	0.53927421	0.23057787	-0.044700972	0.77216912	0.081173222	0.0079361568	0.46209583	0.271589	-0.071268958	0.70140021	0.028658282	0.045050682	0.81434769	0.4475637	-0.16636426	0.8201128	0.44909577	0.12328707	0.83752617	0.41329096	-0.046311632	0.82436714	0.45692713	-0.0039344333	0.72068457	0.81409234	-0.18883335	0.75854101	0.8628968	0.18731965	0.7843743	0.92842354	-0.13625436	0.81678274	0.95045864	0.10582415	0.60178275	0.9533007	0.0075520325	0.76894905	1.4153842	-0.1573139	0.75462301	1.4045125	0.16583103	0.67734121	1.440787	-0.0034252042	0.68860401	1.0843024	-0.24166766	0.67671812	1.0578899	0.21876332	0.84065338	0.89209937	-0.23023479	0.81772567	0.87156865	0.29693116
378	1.508	0.54415659	0.094088194	-0.098165213	0.89365749	0.039215444	0.047655889	0.52157866	0.23024433	-0.12247637	0.75163285	0.051484054	0.090806844	0.55163094	0.23041279	-0.0440443	0.77212888	0.081290517	0.0080923191	0.47338511	0.26998667	-0.07029966	0.70134113	0.028674902	0.04504615	0.8239998	0.45045617	-0.16603931	0.82025282	0.44930563	0.12383772	0.84751915	0.41641044	-0.045970428	0.82386718	0.45701092	-0.0034500696	0.72720008	0.81610252	-0.18924084	0.7625576	0.86392633	0.18749434	0.79035154	0.9302695	-0.13522133	0.82098855	0.95194613	0.10668723	0.60659931	0.95472864	0.0066982958	0.77312827	1.416847	-0.15709045	0.75892037	1.4058907	0.1661396	0.68165252	1.4422248	-0.0031131202	0.69107938	1.0863603	-0.24193483	0.68423721	1.0584476	0.2200154	0.84047262	0.89208076	-0.23172531	0.82957365	0.87404815	0.29565732
379	1.512	0.55954257	0.093920866	-0.098488176	0.89357387	0.039244265	0.047708324	0.53373636	0.22960112	-0.12173101	0.75152068	0.051490888	0.09090283	0.56402	0.23000381	-0.043362448	0.77208923	0.081407896	0.0082464625	0.48480818	0.26810101	-0.069351721	0.70126669	0.028681296	0.0450524	0.833557	0.45331492	-0.16569063	0.82040773	0.44950127	0.12438387	0.85754609	0.41947406	-0.04567844	0.82269045	0.45715987	-0.0031837432	0.7338175	0.81805572	-0.1894864	0.76655	0.86488703	0.18768958	0.79657871	0.93204222	-0.13423532	0.82519581	0.95334517	0.10752826	0.61140133	0.95608593	0.0058372459	0.77729066	1.4182703	-0.15686561	0.76322015	1.4072284	0.16643869	0.68596625	1.4436061	-0.0027943678	0.69340551	1.0884164	-0.24223671	0.69196656	1.0589401	0.22119339	0.84025536	0.89209618	-0.23323186	0.84136993	0.87661019	0.29433378
380	1.516	0.57510995	0.093575216	-0.098870339	0.89349284	0.039273021	0.047761226	0.54603227	0.22867375	-0.12105988	0.75143587	0.051497259	0.091001641	0.57646259	0.22933038	-0.042686338	0.7720557	0.081528102	0.0083933038	0.49634741	0.26593396	-0.068414477	0.70118607	0.028674636	0.045062156	0.84304611	0.45613976	-0.1653317	0.82054874	0.44968506	0.12494395	0.86761557	0.42249353	-0.045449064	0.82170216	0.45733252	-0.0028556553	0.74049502	0.81995024	-0.18961731	0.77035289	0.86575197	0.18792398	0.80293405	0.9337403	-0.13333171	0.82940097	0.95465159	0.10834085	0.61617017	0.95737221	0.0049727072	0.78144554	1.4196441	-0.15663646	0.76752568	1.4085254	0.16673212	0.69026938	1.4449191	-0.0024645276	0.69584444	1.090461	-0.2422837	0.6998051	1.0594131	0.22230602	0.84002008	0.89213552	-0.23473638	0.85310775	0.87924331	0.29296583
381	1.52	0.59091423	0.093089942	-0.099327025	0.89341486	0.039302766	0.047815114	0.55850952	0.22746279	-0.12049587	0.75143577	0.051492215	0.091087	0.58903369	0.22837556	-0.042050599	0.77202836	0.081653836	0.0085351288	0.50799876	0.26349069	-0.06750302	0.70110819	0.028658484	0.045064744	0.85248916	0.45892376	-0.16498073	0.82066313	0.44986032	0.12552827	0.87766995	0.42547351	-0.045274819	0.8214756	0.45746578	-0.0022850465	0.74713424	0.82178348	-0.18973612	0.77390067	0.86653805	0.18821124	0.80919182	0.93538615	-0.13248626	0.8335971	0.95585685	0.10911692	0.62087831	0.95859286	0.0041060191	0.7855872	1.4209655	-0.15640243	0.77183487	1.4097774	0.16701871	0.69455336	1.446158	-0.0021414203	0.69844923	1.0924793	-0.24211823	0.70773442	1.0598979	0.22334406	0.83978037	0.89219223	-0.23619039	0.86480217	0.88193679	0.29155985
382	1.524	0.60693328	0.092483655	-0.099831456	0.89334145	0.039332538	0.047869598	0.57118913	0.22597173	-0.12004979	0.75152293	0.051472765	0.091145584	0.60183832	0.22715452	-0.041507564	0.77198957	0.081786204	0.0086917024	0.51976279	0.26077818	-0.06663411	0.70102967	0.028637662	0.045055692	0.86187547	0.46164942	-0.16463387	0.82075836	0.45003068	0.12613618	0.88766401	0.42841976	-0.045134334	0.82178111	0.45755432	-0.0015434	0.75370028	0.82355335	-0.18988645	0.77729739	0.86728874	0.18852754	0.81520956	0.93699954	-0.13166354	0.83778181	0.95695452	0.10985394	0.62552748	0.95976348	0.0032711291	0.78970391	1.4222347	-0.15616718	0.77614373	1.4109769	0.16729472	0.69881898	1.4473235	-0.0018461984	0.7010659	1.0944514	-0.24202511	0.71575321	1.0603955	0.22430635	0.83955211	0.89227174	-0.23756704	0.87647228	0.88468575	0.29012044
